P1
# une ligne image = une ligne du fichier
7 9
1000001
0011100
0100010
0000010
0000100
0001000
0010000
1111111
1000001
