P1
# une ligne image = une ligne du fichier
7 9
0000100
0000110
0110000
0000000
0000000
0000000
0001100
0001100
0000000
