P1
# une ligne image = une ligne du fichier
7 9
1110000
1000101
1011111
0100100
0111100
0111100
1011000
0100100
0011000
