P1
# une ligne image = une ligne du fichier
7 9
0000000
0000111
0000000
0100000
0111100
0100000
0100000
0100000
0000000
