P1
# une ligne image = une ligne du fichier
7 9
1000000
0100000
0100000
0100000
0111100
0100000
0100000
0100000
1000000
